<svg xmlns="http://www.w3.org/2000/svg" version="1.1" xmlns:xlink="http://www.w3.org/1999/xlink" xmlns:svgjs="http://svgjs.dev/svgjs" width="1320" height="560" preserveAspectRatio="none" viewBox="0 0 1320 560"><g mask="url(&quot;#SvgjsMask1067&quot;)" fill="none"><rect width="1320" height="560" x="0" y="0" fill="rgba(111, 66, 193, 1)"></rect><path d="M0,312.314C58.474,304.783,113.147,285.103,163.116,253.814C213.565,222.225,269.42,188.126,288.42,131.717C307.039,76.439,264.09,20.697,261.261,-37.564C258.008,-104.566,302.281,-175.361,270.637,-234.509C238.437,-294.697,165.731,-322.245,99.701,-339.55C34.849,-356.546,-38.617,-363.568,-97.16,-330.897C-153.106,-299.675,-155.886,-219.81,-199.294,-172.689C-244.837,-123.251,-342.198,-117.031,-354.968,-51.037C-367.574,14.107,-283.155,56.37,-255.269,116.577C-227.603,176.31,-244.793,259.564,-192.554,299.62C-140.454,339.57,-65.116,320.7,0,312.314" fill="#5d36a4"></path><path d="M1320 1028.393C1406.581 1025.2559999999999 1443.119 911.5740000000001 1518.525 868.9110000000001 1600.865 822.325 1721.641 845.119 1778.101 769.208 1834.748 693.046 1831.944 580.274 1799.567 491.049 1769.0529999999999 406.957 1676.683 368.527 1610.763 308.053 1553.52 255.539 1510.185 187.07600000000002 1437.716 159.09699999999998 1362.008 129.86700000000002 1275.42 120.85399999999998 1199.387 149.22899999999998 1125.311 176.87400000000002 1084.267 251.12 1032.051 310.491 979.405 370.351 917.072 422.752 892.2139999999999 498.494 864.6 582.634 841.068 681.764 884.96 758.6759999999999 928.664 835.258 1037.069 837.177 1112.01 883.639 1185.284 929.068 1233.843 1031.5149999999999 1320 1028.393" fill="#8761cb"></path></g><defs><mask id="SvgjsMask1067"><rect width="1320" height="560" fill="#ffffff"></rect></mask></defs></svg>